<!DOCTYPE svg PUBLIC "-//W3C//DTD SVG 20010904//EN" "http://www.w3.org/TR/2001/REC-SVG-20010904/DTD/svg10.dtd">
<svg version="1.0" xmlns="http://www.w3.org/2000/svg" width="189px" height="91px" viewBox="0 0 1890 910" preserveAspectRatio="xMidYMid meet">
<g id="layer101" fill="#333333" stroke="none">
 <path d="M0 455 l0 -455 945 0 945 0 0 455 0 455 -945 0 -945 0 0 -455z"/>
 </g>
<g id="layer102" fill="#ffffff" stroke="none">
 <path d="M0 455 l0 -455 945 0 945 0 0 455 0 455 -945 0 -945 0 0 -455z m320 276 c0 -4 -27 -33 -60 -66 -42 -41 -61 -54 -65 -44 -17 46 -55 164 -55 170 0 4 40 -6 90 -23 49 -16 90 -33 90 -37z m1368 -5 c29 -30 49 -61 47 -68 -6 -13 -115 -95 -140 -105 -8 -2 -34 14 -59 37 l-45 42 -49 -36 c-52 -37 -183 -170 -219 -222 l-22 -31 39 -38 c22 -22 40 -47 40 -57 0 -26 -91 -148 -110 -148 -10 0 -40 24 -68 53 l-50 54 9 49 c36 191 267 441 468 505 89 29 102 26 159 -35z m-1016 -468 l-62 -63 -175 175 c-96 96 -175 179 -175 185 0 5 26 35 57 67 l58 58 180 -180 180 -180 -63 -62z m156 -21 c12 -11 22 -28 22 -37 0 -15 -100 -120 -114 -120 -3 0 -21 14 -41 32 l-36 31 62 63 c64 65 68 66 107 31z"/>
 </g>

</svg>